<svg width="24" height="24" viewBox="0 0 24 24" fill="none" xmlns="http://www.w3.org/2000/svg">
<g clip-path="url(#clip0_701_2693)">
<path d="M9.13167 23.2332C8.68094 23.1219 8.21265 23.0575 7.78533 22.8878C6.95997 22.56 6.35704 21.9454 5.99997 21.1375C5.78923 20.6575 5.47314 20.4644 4.95801 20.4351C3.24289 20.3414 1.86728 19.1766 1.53362 17.5375C1.32875 16.5249 1.55119 15.5824 2.09558 14.7102C2.1307 14.6575 2.16582 14.599 2.20094 14.5463C-0.222472 12.5444 0.479966 8.53462 3.72875 7.55121C3.48289 6.62633 3.62338 5.75999 4.22631 4.99901C4.82338 4.24974 5.61948 3.89267 6.58533 3.89267C6.69655 2.55218 7.31704 1.54535 8.57558 1.04194C9.82826 0.544378 10.9639 0.837061 11.9473 1.73267C12.2048 1.55706 12.4507 1.36389 12.72 1.21169C13.1824 0.94828 13.7092 1.09462 13.9492 1.53365C14.1834 1.96682 14.037 2.47609 13.5746 2.72779C13.077 3.00291 12.8605 3.41852 12.8253 3.97462C12.7844 4.57755 12.2107 4.94047 11.6605 4.7356C11.3327 4.61267 11.1395 4.37267 11.0985 4.02145C11.0809 3.86926 11.0751 3.71121 11.04 3.56486C10.8761 2.92682 10.2614 2.4995 9.62338 2.56389C8.90923 2.63999 8.41753 3.16682 8.35314 3.90438C8.33558 4.13267 8.31216 4.37852 8.22436 4.5834C7.92582 5.3034 7.35216 5.61365 6.59119 5.65462C6.34533 5.66633 6.07606 5.72486 5.87119 5.84779C5.27411 6.21072 5.21558 6.97755 5.68387 7.49267C5.83606 7.65657 5.97655 7.87316 6.01753 8.08389C6.11119 8.56974 5.77167 8.98535 5.27411 9.0673C4.98728 9.11413 4.6946 9.15511 4.40777 9.20194C3.29558 9.38926 2.49363 10.3727 2.52289 11.52C2.55216 12.6146 3.40094 13.5454 4.50728 13.68C4.6068 13.6917 4.71216 13.7034 4.81167 13.7093C5.30338 13.7385 5.67216 14.119 5.66045 14.5932C5.64875 15.0732 5.2624 15.4654 4.76484 15.4536C4.48972 15.4478 4.2146 15.3893 3.93948 15.3717C3.86923 15.3658 3.76387 15.3951 3.72289 15.4478C3.24289 16.0741 3.04387 16.7649 3.35997 17.5141C3.66436 18.2458 4.25558 18.6439 5.03997 18.6849C5.79509 18.72 6.46241 18.9307 6.98923 19.4868C7.1824 19.6917 7.36387 19.9258 7.46923 20.1834C7.86728 21.1668 8.79801 21.7288 10.0331 21.3307C10.3434 21.2312 10.6244 21.0556 10.9229 20.921C11.0517 20.8624 11.0868 20.7629 11.0868 20.6224C11.0809 19.2702 11.0809 17.918 11.0809 16.5717C11.0809 13.5571 11.0809 10.5424 11.0809 7.52194C11.0809 6.98926 11.3268 6.6556 11.7834 6.55608C12.2575 6.45072 12.7434 6.79023 12.8078 7.27023C12.8253 7.39316 12.8253 7.51608 12.8253 7.63901C12.8253 11.9473 12.8253 16.2556 12.8195 20.5639C12.8195 20.7571 12.878 20.8683 13.0419 20.9619C13.4517 21.1961 13.879 21.3775 14.3531 21.4302C15.3073 21.5297 15.998 21.1375 16.3902 20.2654C16.7766 19.4107 17.438 18.9015 18.357 18.7258C18.4975 18.6966 18.6497 18.7024 18.7902 18.6907C19.6214 18.638 20.2478 18.2634 20.558 17.479C20.8741 16.6771 20.6341 15.9629 20.0897 15.3366C19.9961 15.2254 19.8731 15.1434 19.7619 15.0497C19.3814 14.7336 19.317 14.2244 19.6039 13.838C19.8848 13.4634 20.4117 13.3814 20.8156 13.6624C22.0507 14.5112 22.6946 16.1854 22.3492 17.6605C22.0156 19.0829 20.7746 20.1951 19.2761 20.4117C19.1239 20.4351 18.9717 20.441 18.8195 20.4468C18.4039 20.4585 18.1287 20.6575 17.959 21.038C17.6195 21.8224 17.0634 22.4136 16.3083 22.8117C15.8985 23.0283 15.4595 23.1571 14.9912 23.1922C14.9209 23.198 14.8507 23.2156 14.7746 23.2273C14.6868 23.2273 14.599 23.2273 14.5112 23.2273C14.4761 23.2156 14.4409 23.2039 14.4058 23.198C13.5512 23.1512 12.7726 22.8585 12.0526 22.4136C11.9941 22.3785 11.8829 22.4019 11.8068 22.4312C11.3561 22.6244 10.917 22.8644 10.4546 23.0224C10.1151 23.1395 9.74631 23.1629 9.38923 23.2273C9.30728 23.2332 9.21948 23.2332 9.13167 23.2332Z" fill="white"/>
<path d="M23.1981 9.55902C23.0869 10.0976 22.7591 10.4956 22.3611 10.8585C22.045 11.1512 21.7464 11.4615 21.442 11.7659C21.0206 12.1815 20.4937 12.2049 20.125 11.8302C19.762 11.4556 19.7913 10.9405 20.2069 10.5307C20.324 10.4137 20.4469 10.2966 20.5581 10.1268C20.482 10.1268 20.4118 10.1268 20.3357 10.1268C18.8664 10.1268 17.3972 10.1268 15.9337 10.1268C15.325 10.1268 14.9152 9.61756 15.0498 9.0439C15.1435 8.64 15.4947 8.37659 15.963 8.37659C17.3854 8.37659 18.8137 8.37659 20.2362 8.37659C20.3123 8.37659 20.3884 8.37659 20.4645 8.37659C20.4703 8.35903 20.482 8.34146 20.4879 8.32976C20.3708 8.22439 20.2537 8.11902 20.1484 8.00781C19.7913 7.63902 19.7854 7.11805 20.1308 6.76683C20.4762 6.40976 21.0089 6.4039 21.3835 6.76683C21.8284 7.2 22.2674 7.63903 22.7064 8.07805C22.9757 8.34146 23.1045 8.68098 23.204 9.0322C23.1981 9.21366 23.1981 9.38927 23.1981 9.55902Z" fill="white"/>
<path d="M17.6078 4.75902C17.7483 4.89366 17.8946 5.02829 18.0293 5.16878C18.3805 5.5317 18.3863 6.06439 18.0527 6.40975C17.7073 6.76097 17.1688 6.76683 16.8 6.40975C16.3551 5.97658 15.9102 5.54341 15.4771 5.09854C14.8098 4.4078 14.8039 3.36585 15.4654 2.66927C15.9044 2.21268 16.361 1.7678 16.8176 1.32878C17.1688 0.989266 17.7015 1.00097 18.041 1.33463C18.3746 1.66829 18.3863 2.20097 18.0527 2.55805C17.9415 2.68097 17.8185 2.79219 17.6605 2.94439C17.7893 2.95024 17.8654 2.9561 17.9415 2.9561C19.3639 2.9561 20.7863 2.9561 22.2088 2.9561C22.8761 2.9561 23.3034 3.5239 23.1044 4.11512C22.9756 4.48975 22.6537 4.70049 22.2029 4.70634C20.7571 4.70634 19.3112 4.70634 17.8654 4.70634C17.7893 4.70634 17.7073 4.70634 17.6312 4.70634C17.6254 4.7239 17.6137 4.74146 17.6078 4.75902Z" fill="white"/>
</g>
<defs>
<clipPath id="clip0_701_2693">
<rect width="24" height="24" fill="white"/>
</clipPath>
</defs>
</svg>
