<svg width="24" height="24" viewBox="0 0 24 24" fill="none" xmlns="http://www.w3.org/2000/svg">
<g clip-path="url(#clip0_701_2689)">
<path d="M3.45947 23.9708C3.07313 23.8303 2.65752 23.7425 2.31215 23.5435C1.46922 23.0459 1.02435 22.2791 0.965809 21.3015C0.959955 21.1903 0.959955 21.0849 0.959955 20.9737C0.959955 14.9913 0.965809 9.00882 0.954102 3.02638C0.954102 1.89663 1.38727 1.01858 2.35313 0.427357C2.80386 0.152236 3.30142 0.0410156 3.82825 0.0410156C4.97556 0.0410156 6.12288 0.0410156 7.2702 0.0410156C11.5141 0.0410156 15.758 0.0410156 20.0078 0.0410156C20.1482 0.0410156 20.2887 0.0468696 20.4234 0.0761379C20.8214 0.169796 21.1141 0.485894 21.1141 0.883943C21.1258 4.58346 21.1258 8.28297 21.1141 11.9825C21.1141 12.3864 20.8273 12.6966 20.4351 12.802C20.0663 12.9015 19.6448 12.7786 19.4517 12.4449C19.3404 12.2517 19.2819 12.0117 19.2702 11.7835C19.2468 11.1864 19.2643 10.5835 19.2643 9.98638C19.2643 7.39907 19.2643 4.8176 19.2643 2.23028C19.2643 2.13077 19.2643 2.03126 19.2643 1.90833C19.159 1.90833 19.077 1.90833 18.9892 1.90833C13.9609 1.90833 8.93849 1.90833 3.9102 1.90833C3.19605 1.90833 2.83313 2.26541 2.83313 2.98541C2.83313 8.07809 2.83313 13.1708 2.83313 18.2693C2.83313 18.3396 2.83898 18.4098 2.83898 18.4449C3.45947 18.4039 4.06825 18.363 4.70044 18.322C4.70044 18.2342 4.70044 18.1347 4.70044 18.0352C4.70044 13.6742 4.70044 9.31321 4.70044 4.95224C4.70044 4.79419 4.70044 4.63614 4.72971 4.4898C4.82337 4.06248 5.23898 3.75809 5.68386 3.7815C6.12874 3.80492 6.49752 4.13858 6.55605 4.58345C6.57361 4.71223 6.57361 4.84687 6.57361 4.9815C6.57361 9.32492 6.57361 13.6742 6.57361 18.0176C6.57361 18.123 6.57361 18.2283 6.57361 18.3571C6.72581 18.3571 6.84874 18.3571 6.97166 18.3571C7.95508 18.3571 8.93849 18.3513 9.92191 18.3571C10.5307 18.363 10.9404 18.843 10.8585 19.44C10.7941 19.8966 10.4078 20.2186 9.89849 20.2244C9.28971 20.2303 8.68093 20.2244 8.07215 20.2244C6.64386 20.2244 5.21556 20.2186 3.78727 20.2244C3.09069 20.2303 2.64581 20.88 2.89752 21.5064C3.04386 21.8752 3.38337 22.0917 3.82239 22.0917C4.68874 22.0976 5.55508 22.0917 6.42142 22.0917C8.01361 22.0917 9.60581 22.0917 11.198 22.0917C11.8478 22.0917 12.2809 22.5952 12.1639 23.2098C12.0878 23.6254 11.7834 23.8303 11.4146 23.9649C8.76874 23.9708 6.11118 23.9708 3.45947 23.9708Z" fill="white"/>
<path d="M15.2604 23.9708C15.114 23.8888 14.9501 23.8303 14.8214 23.7308C14.4935 23.4615 14.4584 23.0986 14.5287 22.7122C14.6457 22.0859 14.757 21.4595 14.8799 20.8332C14.9092 20.6693 14.874 20.5639 14.7511 20.4469C14.2711 20.002 13.8028 19.5395 13.3228 19.0947C13.0126 18.802 12.8604 18.4625 12.995 18.0469C13.1296 17.6195 13.4692 17.4381 13.8965 17.3795C14.5696 17.2917 15.2428 17.1981 15.9101 17.0927C16.0038 17.0752 16.1209 16.9873 16.1618 16.9054C16.4838 16.2849 16.7823 15.6527 17.1043 15.0264C17.4204 14.4059 18.117 14.2478 18.6028 14.6927C18.714 14.7922 18.796 14.9327 18.8662 15.0732C19.1706 15.6761 19.475 16.2849 19.7677 16.8937C19.8321 17.0283 19.9199 17.0869 20.0662 17.1044C20.757 17.1922 21.4418 17.2917 22.1267 17.3912C22.5306 17.4498 22.835 17.6488 22.9579 18.0527C23.075 18.4391 22.9638 18.7727 22.6711 19.0478C22.1853 19.5103 21.7053 19.9786 21.2135 20.4351C21.0789 20.5581 21.0496 20.6693 21.0848 20.8449C21.2135 21.4303 21.3248 22.0156 21.4418 22.6069C21.5882 23.3678 21.4594 23.6312 20.7862 23.9766C20.6457 23.9766 20.5053 23.9766 20.3648 23.9766C19.6272 23.6078 18.8955 23.2508 18.1579 22.8761C18.0233 22.8059 17.9238 22.8117 17.7892 22.8761C17.0574 23.2508 16.3199 23.6078 15.5823 23.9766C15.477 23.9708 15.3716 23.9708 15.2604 23.9708ZM19.2701 21.3366C19.2292 21.12 19.2116 20.9444 19.1648 20.7864C18.995 20.2127 19.1296 19.7444 19.6038 19.3756C19.7443 19.2644 19.8789 19.1415 20.0135 19.0244C19.8321 18.9483 19.7033 18.9191 19.5687 18.9132C18.8838 18.8956 18.4155 18.5912 18.1931 17.9298C18.1462 17.7834 18.0526 17.6488 17.9648 17.4791C17.836 17.7366 17.7189 17.9532 17.6253 18.1698C17.4379 18.6088 17.1043 18.8312 16.636 18.8664C16.4135 18.8839 16.1911 18.9308 16.0038 18.96C16.1735 19.1532 16.3316 19.3464 16.5072 19.522C16.8116 19.8147 16.917 20.1542 16.8233 20.5581C16.7706 20.7981 16.7414 21.0381 16.6887 21.3191C16.9814 21.1727 17.2214 21.0498 17.4614 20.9269C17.795 20.7512 18.1287 20.7454 18.4682 20.921C18.7199 21.0673 18.9716 21.1844 19.2701 21.3366Z" fill="white"/>
</g>
<defs>
<clipPath id="clip0_701_2689">
<rect width="24" height="24" fill="white"/>
</clipPath>
</defs>
</svg>
