<svg width="24" height="24" viewBox="0 0 24 24" fill="none" xmlns="http://www.w3.org/2000/svg">
<g clip-path="url(#clip0_701_2685)">
<path d="M24.0125 9.9455C23.9308 10.4104 23.868 10.8753 23.7738 11.3277C23.7109 11.6356 23.6167 11.9308 23.5099 12.2261C23.3277 12.7413 22.8188 12.9926 22.3287 12.8356C21.8261 12.6722 21.5811 12.157 21.7382 11.623C21.8638 11.1895 21.9769 10.7497 22.1025 10.2848C21.1162 10.2848 20.18 10.2848 19.2125 10.2848C19.112 12.0314 18.8732 13.7591 18.2638 15.4492C18.5591 15.2733 18.8607 15.1036 19.156 14.9277C19.3758 14.7895 19.6083 14.7141 19.8722 14.7644C20.2554 14.8397 20.557 15.1225 20.6261 15.4806C20.7078 15.9015 20.5758 16.2408 20.2177 16.4795C19.4198 17.0198 18.5591 17.4408 17.6167 17.6418C16.913 17.7926 16.1968 17.8429 15.4806 17.9183C15.3298 17.9308 15.2669 17.9685 15.2167 18.1068C14.1423 20.846 12.1758 22.5612 9.29208 23.1581C5.81773 23.8806 2.17375 22.0083 0.684749 18.7727C-1.41996 14.2052 1.11826 8.95912 6.00621 7.7654C6.32035 7.69001 6.63449 7.63346 6.95491 7.60205C7.11197 7.5832 7.15595 7.52037 7.18737 7.37587C7.80307 4.83765 9.2481 2.92142 11.5539 1.69C15.5497 -0.439839 20.5633 1.01775 22.8313 4.93817C23.4785 6.05021 23.868 7.24393 23.9811 8.53189C23.9874 8.59472 24.0062 8.65126 24.0188 8.71409C24.0125 9.13503 24.0125 9.53712 24.0125 9.9455ZM7.81564 21.4303C11.1266 21.4303 13.8094 18.7476 13.8094 15.4366C13.8094 12.1319 11.1141 9.4366 7.80936 9.4366C4.51093 9.4366 1.81564 12.1319 1.81564 15.4366C1.81564 18.7413 4.50464 21.4303 7.81564 21.4303ZM17.3277 8.37482C17.2209 6.71618 17.0198 5.10781 16.3162 3.60623C16.1842 3.32351 16.002 3.06592 15.8073 2.82089C15.5748 2.53189 15.3989 2.51932 15.1853 2.81461C14.9088 3.19786 14.6575 3.61252 14.4753 4.04603C14.0669 5.01356 13.8847 6.03765 13.7654 7.0743C13.7151 7.50152 13.69 7.92875 13.646 8.36854C14.8837 8.37482 16.09 8.37482 17.3277 8.37482ZM18.2889 3.24184C18.5026 4.07744 18.7539 4.91932 18.9172 5.77377C19.0743 6.62822 19.1434 7.50152 19.2502 8.37482C20.18 8.37482 21.1099 8.37482 22.0397 8.37482C21.8827 6.42718 20.3937 4.15283 18.2889 3.24184ZM13.7717 10.2785C15.1539 11.9308 15.7758 13.7968 15.6879 15.9204C16.5361 15.2733 17.5099 11.7926 17.29 10.2785C16.134 10.2785 14.9779 10.2785 13.7717 10.2785ZM11.7675 8.58215C11.8429 6.74131 12.0942 4.95074 12.7853 3.17273C10.8313 4.13398 9.61878 5.61042 9.05962 7.62089C9.54339 7.75911 10.002 7.85964 10.4418 8.01671C10.8816 8.17378 11.3025 8.3811 11.7675 8.58215Z" fill="white"/>
<path d="M5.47212 16.7686C4.36637 15.1476 4.98835 13.5079 5.94961 12.7225C7.05537 11.8178 8.63233 11.8304 9.71296 12.7476C10.7119 13.5958 11.2145 15.2356 10.159 16.7686C10.291 16.8817 10.4355 16.9948 10.5611 17.1141C11.0135 17.5414 11.0637 18.1005 10.6868 18.5089C10.3098 18.9173 9.75694 18.9173 9.28574 18.5026C8.52553 17.8304 7.50144 17.7236 6.68469 18.2387C6.54019 18.333 6.41453 18.4461 6.2826 18.5592C5.86794 18.911 5.30877 18.8921 4.95066 18.5089C4.59254 18.1257 4.61139 17.5665 5.00092 17.177C5.15171 17.0387 5.31506 16.9068 5.47212 16.7686ZM7.83443 13.9414C7.24385 13.9351 6.76008 14.4 6.76008 14.9843C6.7538 15.556 7.225 16.0272 7.80301 16.0335C8.38102 16.0398 8.85851 15.5811 8.86479 15.0031C8.87736 14.4314 8.41244 13.9476 7.83443 13.9414Z" fill="white"/>
</g>
<defs>
<clipPath id="clip0_701_2685">
<rect width="24" height="24" fill="white"/>
</clipPath>
</defs>
</svg>
