<svg width="24" height="24" viewBox="0 0 24 24" fill="none" xmlns="http://www.w3.org/2000/svg">
<g clip-path="url(#clip0_701_2698)">
<path d="M23.9649 12.6557C23.8888 13.2059 23.8303 13.7678 23.7249 14.3122C23.4322 15.8752 22.8117 17.3152 21.9337 18.6381C21.641 19.0771 21.0849 19.1825 20.6576 18.9074C20.2361 18.6439 20.1132 18.1171 20.3532 17.6547C20.7278 16.9288 21.1785 16.2322 21.4537 15.4713C22.5893 12.3278 22.2732 9.29565 20.441 6.4976C18.7493 3.91614 16.3317 2.37663 13.2527 1.99614C10.1737 1.61565 7.46343 2.48784 5.16879 4.57175C3.28391 6.28102 2.15416 8.41175 1.94343 10.9405C1.59221 15.1259 3.23123 18.3747 6.7844 20.6517C6.81952 20.6752 6.85465 20.6869 6.88977 20.7044C6.89562 20.7044 6.90147 20.6986 6.9366 20.6927C6.9366 20.441 6.9366 20.1776 6.9366 19.9142C6.9366 19.3464 6.93074 18.7786 6.94245 18.2108C6.95416 17.7074 7.31709 17.3269 7.79123 17.2859C8.25952 17.2449 8.68684 17.5552 8.78635 18.0235C8.80391 18.1113 8.80977 18.2108 8.80977 18.3044C8.80977 19.1766 8.81562 20.0488 8.80977 20.921C8.80391 22.4664 7.79709 23.6488 6.26928 23.9298C6.24001 23.9356 6.2166 23.9532 6.18733 23.9708C5.04587 23.9708 3.91026 23.9708 2.76879 23.9708C2.75708 23.9591 2.74538 23.9474 2.73367 23.9415C2.20684 23.8069 1.95513 23.2917 2.03709 22.8761C2.13074 22.3844 2.51123 22.1035 3.07904 22.1035C3.45367 22.1035 3.8283 22.1035 4.20294 22.1035C4.63026 22.1035 5.05172 22.1035 5.53757 22.1035C5.44391 22.0332 5.39708 21.9922 5.35026 21.963C4.37269 21.3132 3.5005 20.5288 2.75709 19.6215C1.46928 18.0527 0.614646 16.2732 0.240012 14.2771C0.140499 13.7561 0.0878163 13.2352 0.0117188 12.7083C0.0117188 12.24 0.0117188 11.7717 0.0117188 11.3035C0.0468407 10.9991 0.0761091 10.6888 0.122938 10.3844C0.450743 8.03711 1.36977 5.93565 2.95611 4.16785C5.80684 0.983455 9.38928 -0.35118 13.6332 0.158088C16.0215 0.444917 18.1171 1.43419 19.9142 3.02053C22.0098 4.87614 23.321 7.18248 23.8068 9.94541C23.8829 10.3961 23.9298 10.8527 23.9883 11.3035C23.9649 11.7542 23.9649 12.2049 23.9649 12.6557Z" fill="white"/>
<path d="M11.7892 23.9707C11.5082 23.8595 11.2624 23.719 11.1277 23.4263C10.8467 22.8058 11.2799 22.1268 11.9765 22.1092C12.796 22.0858 13.6097 22.0039 14.4058 21.8049C15.3599 21.5707 16.2555 21.2019 17.0985 20.7102C17.3326 20.5756 17.5726 20.4761 17.8536 20.5288C18.2458 20.6049 18.5443 20.9034 18.6146 21.2897C18.6848 21.6644 18.5209 22.0683 18.1463 22.2556C17.397 22.6302 16.6419 23.0107 15.8633 23.3092C14.9033 23.6839 13.8848 23.8595 12.8546 23.9356C12.796 23.9414 12.7316 23.959 12.6731 23.9707C12.3863 23.9707 12.0877 23.9707 11.7892 23.9707Z" fill="white"/>
<path d="M9.82833 13.5922C10.0683 13.5922 10.2674 13.5864 10.4664 13.5922C11.0108 13.6039 11.4088 14.002 11.4147 14.5171C11.4205 15.0439 11.0108 15.4537 10.4605 15.4595C9.52979 15.4654 8.60491 15.4654 7.67418 15.4595C7.20004 15.4595 6.84882 15.2429 6.70833 14.8625C6.55028 14.441 6.69077 14.0956 6.99516 13.7854C7.59808 13.159 8.20687 12.5327 8.78638 11.8771C9.02638 11.6078 9.21369 11.2859 9.40101 10.9698C9.54735 10.7298 9.45369 10.4839 9.20784 10.3669C8.96199 10.2498 8.66345 10.3551 8.56394 10.6069C8.52882 10.6888 8.52296 10.7883 8.51125 10.882C8.44101 11.3912 8.01955 11.7483 7.52784 11.719C7.03028 11.6898 6.65565 11.2859 6.64979 10.7766C6.62638 9.27807 8.18345 8.10734 9.62345 8.54051C10.8117 8.89758 11.5317 9.98636 11.3269 11.1395C11.2274 11.7073 10.9171 12.1756 10.5893 12.6322C10.3493 12.9425 10.1034 13.2469 9.82833 13.5922Z" fill="white"/>
<path d="M15.9864 12.9951C15.079 13.2 14.2712 13.0127 13.5922 12.3922C13.083 11.9239 12.8078 11.3327 12.7844 10.6361C12.7669 10.2264 12.7727 9.81075 12.7786 9.40099C12.7903 8.86246 13.1883 8.45855 13.7034 8.4527C14.2303 8.44684 14.6342 8.8566 14.6459 9.40685C14.6517 9.76392 14.6459 10.121 14.6459 10.4839C14.6517 10.9112 14.9386 11.2156 15.3366 11.2098C15.7229 11.2039 15.9981 10.9054 16.0039 10.4898C16.0098 10.1386 16.0039 9.78733 16.0039 9.43611C16.0098 8.86246 16.4078 8.4527 16.9405 8.4527C17.4732 8.4527 17.8712 8.86831 17.8712 9.44197C17.8771 11.1161 17.8771 12.7903 17.8712 14.4644C17.8712 15.0498 17.4673 15.4712 16.923 15.4595C16.3903 15.4537 16.0039 15.0381 15.9981 14.4644C15.9922 13.9961 15.9981 13.5278 15.9922 13.0654C16.0039 13.0478 15.9981 13.0361 15.9864 12.9951Z" fill="white"/>
</g>
<defs>
<clipPath id="clip0_701_2698">
<rect width="24" height="24" fill="white"/>
</clipPath>
</defs>
</svg>
