<svg width="15" height="15" viewBox="0 0 15 15" fill="none" xmlns="http://www.w3.org/2000/svg">
<g clip-path="url(#clip0_520_34)">
<path d="M15.0051 10.1734C14.9341 10.3616 14.8327 10.5226 14.6338 10.6006C14.2713 10.7428 13.8753 10.5017 13.8353 10.1116C13.8286 10.0487 13.8308 9.98438 13.8308 9.92115C13.8305 8.08659 13.8371 6.25203 13.8286 4.41747C13.8228 3.17887 13.2856 2.22776 12.2228 1.58659C11.7349 1.29247 11.1959 1.16085 10.6275 1.16049C8.53415 1.15865 6.4404 1.15276 4.34702 1.16232C2.81356 1.16931 1.54812 2.19982 1.22128 3.69468C1.17055 3.92666 1.15253 4.17004 1.1518 4.40828C1.14665 6.46784 1.14738 8.5274 1.14922 10.5873C1.15069 12.1561 2.14334 13.4134 3.66981 13.7675C3.90547 13.8222 4.15437 13.8406 4.39702 13.841C6.45621 13.8465 8.5154 13.8458 10.5746 13.8436C11.5915 13.8425 12.4375 13.4631 13.0966 12.6818C13.1378 12.6333 13.1779 12.584 13.2216 12.5377C13.4389 12.309 13.7753 12.2844 14.0176 12.4785C14.2632 12.6752 14.3239 13.0303 14.1176 13.277C13.893 13.5461 13.6544 13.8112 13.3856 14.034C12.7106 14.5932 11.9301 14.9197 11.0514 14.9965C11.0283 14.9987 11.0058 15.0109 10.983 15.0186C8.67385 15.0186 6.3643 15.0186 4.0551 15.0186C4.01246 15.0105 3.96981 14.9991 3.9268 14.995C3.32974 14.9403 2.76062 14.7778 2.24481 14.4763C0.774957 13.6171 -0.00224876 12.3289 -0.0198958 10.6241C-0.0419546 8.54468 -0.0287193 6.4649 -0.0235722 4.38549C-0.0209987 3.29247 0.326428 2.31857 1.05032 1.49504C1.94481 0.477029 3.08305 -0.0134119 4.43452 -0.0141471C6.46466 -0.0156177 8.49518 -0.0123087 10.5253 -0.0156175C11.4235 -0.0170881 12.2591 0.19725 13.0117 0.693206C13.9202 1.2921 14.5378 2.11343 14.8316 3.16453C14.9136 3.45865 14.9489 3.76563 15.0058 4.06673C15.0051 6.10203 15.0051 8.13769 15.0051 10.1734Z" fill="white"/>
<path d="M7.48424 3.44924C9.70703 3.44225 11.5383 5.26983 11.5409 7.4985C11.5438 9.72387 9.71438 11.554 7.48902 11.5522C5.26659 11.5507 3.45115 9.73858 3.43975 7.51027C3.42835 5.28894 5.25372 3.45622 7.48424 3.44924ZM7.48828 4.62387C5.90593 4.62571 4.61218 5.92167 4.61402 7.50292C4.61585 9.08527 5.91144 10.3794 7.49232 10.3779C9.07431 10.3764 10.3684 9.08012 10.3666 7.49887C10.3648 5.91615 9.06879 4.62167 7.48828 4.62387Z" fill="white"/>
<path d="M11.014 3.38311C11.0184 3.06031 11.289 2.79855 11.6118 2.8048C11.9346 2.81105 12.1945 3.08347 12.186 3.40627C12.1776 3.72318 11.9129 3.97943 11.596 3.97722C11.2732 3.97502 11.0096 3.7059 11.014 3.38311Z" fill="white"/>
</g>
<defs>
<clipPath id="clip0_520_34">
<rect width="15" height="15" fill="white"/>
</clipPath>
</defs>
</svg>
