<?xml version="1.0" standalone="no"?>
<!DOCTYPE svg PUBLIC "-//W3C//DTD SVG 20010904//EN"
 "http://www.w3.org/TR/2001/REC-SVG-20010904/DTD/svg10.dtd">
<svg version="1.0" xmlns="http://www.w3.org/2000/svg"
 width="1168.000000pt" height="1168.000000pt" viewBox="0 0 1168.000000 1168.000000"
 preserveAspectRatio="xMidYMid meet">
<metadata>
Created by potrace 1.14, written by Peter Selinger 2001-2017
</metadata>
<g transform="translate(0.000000,1168.000000) scale(0.100000,-0.100000)"
fill="#000000" stroke="none">
<path d="M6302 9471 c-24 -27 -61 -73 -83 -103 -21 -29 -43 -57 -48 -63 -5 -5
-30 -55 -57 -110 l-49 -101 -275 0 c-330 0 -505 -10 -735 -40 -22 -2 -56 -6
-75 -9 -19 -2 -52 -6 -72 -9 -21 -3 -54 -8 -74 -11 -21 -3 -46 -8 -58 -10 -12
-3 -37 -7 -56 -9 -32 -5 -152 -28 -210 -41 -14 -3 -36 -8 -50 -11 -14 -3 -41
-9 -60 -14 -19 -5 -46 -11 -60 -14 -14 -3 -52 -13 -85 -22 -85 -23 -84 -23
-142 -3 -29 10 -53 16 -53 13 0 -3 -8 -1 -17 5 -61 32 -328 36 -478 7 -42 -8
-167 -44 -173 -50 -2 -3 20 -54 51 -114 63 -124 67 -107 -38 -153 -27 -12 -77
-34 -110 -49 -33 -15 -64 -28 -70 -29 -5 -1 -18 -10 -27 -18 -10 -9 -18 -13
-18 -10 0 3 -27 -10 -61 -28 -48 -28 -63 -32 -72 -22 -7 7 -29 31 -50 55 -20
23 -37 41 -37 39 0 -2 -20 16 -45 40 -53 50 -167 127 -245 165 -67 33 -185 78
-204 78 -13 0 -20 -24 -30 -100 -5 -39 -13 -97 -21 -150 -6 -41 -18 -189 -16
-207 2 -32 3 -109 1 -118 -1 -5 -1 -12 0 -15 3 -9 7 -34 13 -80 3 -25 8 -57
12 -71 6 -23 -3 -32 -92 -99 -96 -72 -177 -137 -258 -206 -44 -37 -65 -43 -65
-18 0 9 -9 29 -21 45 -11 16 -18 29 -14 29 3 0 -3 10 -15 22 -11 12 -20 26
-20 31 0 34 -204 240 -301 304 -78 52 -150 88 -229 118 -25 9 -54 21 -65 26
-11 5 -32 11 -47 13 -15 3 -32 7 -37 10 -14 9 -19 -4 -26 -65 -3 -30 -8 -76
-11 -104 -3 -27 -8 -68 -10 -90 -6 -61 -6 -297 1 -325 3 -14 8 -45 11 -70 10
-78 73 -260 103 -294 9 -10 15 -21 14 -25 -2 -8 80 -130 106 -158 26 -28 26
-34 0 -64 -12 -13 -38 -44 -58 -69 -20 -25 -38 -47 -42 -50 -3 -3 -31 -39 -64
-80 -32 -41 -61 -79 -66 -83 -4 -5 -24 -11 -45 -13 -50 -4 -105 -13 -126 -20
-9 -3 -27 -7 -40 -10 -36 -8 -39 -9 -113 -37 -16 -7 -32 -12 -35 -13 -5 -1
-75 -31 -135 -59 -64 -30 -203 -83 -235 -90 l-34 -7 48 -44 c25 -24 48 -44 50
-44 2 0 19 -15 38 -33 60 -57 138 -122 158 -131 11 -5 20 -13 20 -17 0 -4 16
-17 35 -29 l35 -22 -37 -66 c-20 -37 -42 -74 -50 -83 -7 -8 -13 -23 -13 -31 0
-9 -4 -18 -8 -20 -9 -4 -192 -371 -192 -386 0 -6 -8 -9 -17 -7 -11 1 -24 -9
-35 -29 -21 -39 -22 -46 -3 -46 16 0 14 -7 -15 -75 -10 -22 -33 -80 -52 -130
-19 -49 -39 -99 -43 -110 -4 -11 -9 -24 -11 -30 -2 -5 -26 -75 -54 -155 -28
-80 -53 -149 -54 -155 -13 -50 -30 -107 -41 -140 -16 -48 -82 -299 -89 -338
-2 -15 -7 -35 -10 -45 -6 -20 -14 -61 -21 -117 -7 -48 -13 -80 -15 -80 -3 0
-8 -37 -14 -99 -3 -32 -10 -64 -15 -70 -15 -18 -23 -76 -11 -76 6 0 8 -17 5
-42 -2 -24 -7 -79 -10 -123 -3 -44 -8 -101 -10 -127 -2 -26 -7 -53 -12 -60 -4
-7 -8 -352 -8 -765 l0 -753 5795 0 5795 0 -1 673 c0 369 -3 697 -7 727 -3 30
-9 96 -13 145 -9 122 -10 130 -18 143 -4 7 -2 12 4 12 6 0 9 4 5 9 -3 6 -8 29
-10 53 -3 24 -8 61 -11 84 -2 22 -7 60 -10 85 -3 24 -7 55 -10 69 -2 14 -7 43
-10 65 -2 22 -8 51 -11 65 -3 14 -7 36 -9 50 -2 23 -8 54 -19 105 -7 29 -14
65 -21 105 -7 38 -10 53 -25 115 -5 22 -11 49 -13 60 -2 11 -11 47 -20 80 -17
62 -25 89 -31 115 -2 8 -4 15 -5 15 -1 0 -3 7 -5 15 -11 54 -115 382 -135 425
-5 11 -19 49 -31 85 -13 36 -29 76 -36 90 -7 14 -13 31 -13 38 0 12 -19 51
-30 62 -3 3 -6 12 -8 20 -4 15 -11 32 -57 135 -34 75 -174 356 -185 370 -4 6
-21 35 -37 66 l-31 56 29 17 c31 18 172 128 200 155 9 9 40 36 69 61 29 25 66
58 81 73 30 30 40 48 14 27 -15 -12 -59 -3 -142 32 -15 6 -30 12 -33 13 -12 4
-132 56 -191 83 -55 25 -182 68 -224 77 -58 11 -90 15 -134 19 -25 2 -49 10
-55 18 -37 50 -156 195 -203 248 -13 14 -23 29 -23 33 0 9 81 110 93 115 4 2
7 10 7 18 0 8 3 14 8 14 27 0 135 247 157 359 27 134 26 432 -1 626 -4 22 -6
46 -7 53 -1 17 -19 15 -105 -14 -293 -98 -550 -320 -668 -578 -23 -50 -28 -55
-42 -44 -10 7 -57 46 -107 86 -108 89 -102 84 -195 152 -41 30 -80 59 -87 65
-6 5 -36 27 -67 48 -50 34 -55 41 -50 65 11 43 13 318 4 354 -5 18 -11 51 -14
73 -6 44 -13 80 -16 80 -1 0 -4 11 -6 25 -4 32 -82 291 -90 299 -8 8 -106 -45
-193 -104 -96 -64 -243 -210 -303 -301 l-48 -72 -75 38 c-42 21 -77 38 -78 38
-1 0 -33 14 -71 31 -38 17 -72 31 -77 31 -22 0 -14 27 41 136 33 66 60 122 60
125 0 3 -6 6 -12 6 -7 1 -58 13 -113 28 -87 24 -120 27 -255 29 -131 1 -189
-3 -255 -18 -37 -9 -106 -29 -136 -41 -32 -12 -44 -11 -118 10 -45 12 -85 23
-89 24 -4 1 -23 6 -42 11 -19 5 -46 11 -60 14 -64 14 -217 47 -230 50 -8 2
-37 7 -64 10 -27 4 -52 9 -55 10 -3 2 -28 7 -56 10 -81 11 -90 15 -105 49 -26
60 -148 250 -210 327 -8 10 -26 34 -40 51 -14 18 -34 43 -45 56 l-20 23 -43
-49z"/>
</g>
</svg>
