<svg width="15" height="11" viewBox="0 0 15 11" fill="none" xmlns="http://www.w3.org/2000/svg">
<path d="M13.5 4.85C13.859 4.85 14.15 5.14101 14.15 5.5C14.15 5.85899 13.859 6.15 13.5 6.15V4.85ZM1.04038 5.95962C0.78654 5.70578 0.78654 5.29422 1.04038 5.04038L5.17696 0.903806C5.4308 0.649965 5.84235 0.649965 6.09619 0.903806C6.35003 1.15765 6.35003 1.5692 6.09619 1.82304L2.41924 5.5L6.09619 9.17696C6.35003 9.4308 6.35003 9.84235 6.09619 10.0962C5.84235 10.35 5.4308 10.35 5.17696 10.0962L1.04038 5.95962ZM13.5 6.15L1.5 6.15V4.85L13.5 4.85V6.15Z" fill="white"/>
</svg>
