<svg width="16" height="16" viewBox="0 0 16 16" fill="none" xmlns="http://www.w3.org/2000/svg">
<g clip-path="url(#clip0_701_2594)">
<path d="M12.2539 15.4971C9.43258 15.4971 6.60836 15.4971 3.78707 15.4971C3.76071 15.4883 3.73434 15.4736 3.70504 15.4707C2.56832 15.3008 1.70993 14.3281 1.707 13.1826C1.70114 9.72559 1.70407 6.27148 1.707 2.81445C1.707 1.75098 2.457 0.819336 3.48825 0.564453C3.58786 0.541016 3.68454 0.520508 3.78414 0.49707C6.60543 0.49707 9.42965 0.49707 12.2509 0.49707C12.2685 0.505859 12.2861 0.517578 12.3037 0.520508C13.5371 0.731445 14.331 1.66602 14.331 2.91699C14.331 5.13477 14.331 7.34961 14.3281 9.56738C14.3281 9.74316 14.3164 9.91895 14.2812 10.0918C14.0527 11.2139 13.1093 11.9814 11.9609 11.9844C9.33004 11.9873 6.69625 11.9844 4.06539 11.9873C3.3945 11.9873 2.87301 12.5029 2.87301 13.1562C2.87301 13.8096 3.39157 14.3281 4.06247 14.3281C6.69918 14.3311 9.3359 14.3311 11.9726 14.3281C12.6289 14.3281 13.1298 13.833 13.1562 13.1797C13.1709 12.8193 13.417 12.5674 13.7539 12.5732C14.0937 12.5791 14.3339 12.8457 14.3281 13.2148C14.3164 14.2256 13.6015 15.1426 12.6142 15.415C12.497 15.4414 12.374 15.4678 12.2539 15.4971ZM2.87887 11.1289C3.39743 10.8184 3.93942 10.8066 4.4902 10.8096C6.95993 10.8154 9.42965 10.8125 11.8994 10.8125C12.6699 10.8125 13.1591 10.3203 13.1591 9.5498C13.1591 7.34961 13.1591 5.14648 13.1591 2.94629C13.1591 2.16406 12.6728 1.67481 11.8935 1.67481C9.31246 1.67481 6.72848 1.67481 4.14743 1.67481C3.3652 1.67481 2.87887 2.16113 2.87887 2.94336C2.87887 5.60938 2.87887 8.27539 2.87887 10.9385C2.87887 10.9854 2.87887 11.0381 2.87887 11.1289Z" fill="white"/>
<path d="M8.0175 5.03809C7.29094 5.03809 6.56438 5.04102 5.83781 5.03809C5.52727 5.03516 5.28117 4.80957 5.25481 4.51074C5.22551 4.21191 5.42473 3.94238 5.72356 3.87793C5.7675 3.86914 5.81145 3.86621 5.85539 3.86621C7.30852 3.86621 8.76164 3.86621 10.2177 3.86621C10.54 3.86621 10.7861 4.08887 10.8154 4.39355C10.8446 4.69238 10.6454 4.96191 10.3437 5.02344C10.2821 5.03516 10.2177 5.03516 10.1532 5.03516C9.44133 5.03809 8.72941 5.03809 8.0175 5.03809Z" fill="white"/>
</g>
<defs>
<clipPath id="clip0_701_2594">
<rect width="15" height="15" fill="white" transform="translate(0.5 0.5)"/>
</clipPath>
</defs>
</svg>
