<svg width="16" height="16" viewBox="0 0 16 16" fill="none" xmlns="http://www.w3.org/2000/svg">
<g clip-path="url(#clip0_701_2604)">
<path d="M3.88592 15.5184C3.58445 15.4486 3.29401 15.364 3.04033 15.1729C2.59548 14.8383 2.35651 14.3898 2.33445 13.8346C2.32342 13.5552 2.33077 13.2758 2.33077 12.9964C2.33077 9.63241 2.33077 6.26476 2.33077 2.90079C2.33077 1.83462 2.93739 0.95594 3.92268 0.621381C4.17268 0.536822 4.44842 0.496381 4.71312 0.492705C6.91901 0.481675 9.12489 0.485351 11.3308 0.489028C12.68 0.492704 13.7131 1.51844 13.7168 2.86403C13.7205 5.50741 13.7168 8.14712 13.7205 10.7905C13.7205 11.0479 13.6286 11.2501 13.3969 11.3714C13.1874 11.478 12.9778 11.4596 12.7867 11.3236C12.6396 11.217 12.5624 11.0699 12.5477 10.8898C12.544 10.8309 12.544 10.7721 12.544 10.7133C12.544 8.11403 12.544 5.51844 12.544 2.91917C12.544 2.30888 12.2278 1.8677 11.6727 1.71329C11.5514 1.6802 11.4227 1.66918 11.2977 1.66918C9.11754 1.6655 6.93371 1.6655 4.75356 1.66918C4.01092 1.66918 3.50724 2.16918 3.50724 2.91182C3.50724 6.51109 3.50724 10.114 3.50724 13.7133C3.50724 14.0184 3.62489 14.2096 3.87121 14.3052C4.13959 14.4045 4.36386 14.3383 4.56239 14.1361C5.55504 13.1104 6.55504 12.0883 7.54768 11.0626C7.73151 10.8714 7.94842 10.7684 8.20577 10.8677C8.31974 10.9118 8.42636 10.9964 8.51459 11.0846C9.50724 12.0993 10.4962 13.114 11.4852 14.1324C11.6543 14.3089 11.8455 14.3934 12.0918 14.3309C12.3749 14.2574 12.5256 14.0699 12.5477 13.7611C12.5771 13.3456 12.9374 13.0883 13.3161 13.2096C13.5624 13.2905 13.7205 13.5184 13.7205 13.7942C13.7205 14.6251 13.0992 15.3456 12.2609 15.4964C12.2278 15.5037 12.1984 15.5148 12.1653 15.5258C12.0183 15.5258 11.8712 15.5258 11.7242 15.5258C11.1396 15.4412 10.7425 15.0662 10.3565 14.6581C9.62121 13.8861 8.87121 13.1287 8.12856 12.364C8.09548 12.3309 8.05871 12.2979 8.01459 12.2574C7.97048 12.3052 7.93739 12.3456 7.90062 12.3824C7.07342 13.2354 6.24254 14.0846 5.41533 14.9376C5.15798 15.2059 4.86018 15.3971 4.49254 15.478C4.43739 15.489 4.38224 15.5074 4.32342 15.5221C4.18003 15.5184 4.03298 15.5184 3.88592 15.5184Z" fill="white"/>
</g>
<defs>
<clipPath id="clip0_701_2604">
<rect width="15" height="15" fill="white" transform="translate(0.5 0.5)"/>
</clipPath>
</defs>
</svg>
