<svg width="18" height="19" viewBox="0 0 18 19" fill="none" xmlns="http://www.w3.org/2000/svg">
<g clip-path="url(#clip0_446_4240)">
<path d="M0.529409 18.5212C0.476468 18.4978 0.423086 18.4758 0.371027 18.4511C-0.0286788 18.2609 -0.157503 17.7664 0.101909 17.4081C0.156615 17.3327 0.224115 17.2656 0.290292 17.1995C2.80103 14.6878 5.3122 12.1771 7.82426 9.66725C7.87368 9.61828 7.93632 9.58254 7.99235 9.54019C8.00029 9.51239 8.00823 9.4846 8.01618 9.45681C7.95485 9.42151 7.8825 9.3968 7.83441 9.34872C5.30912 6.82739 2.78603 4.30298 0.260733 1.78122C0.0441154 1.5646 -0.0922083 1.32857 -0.00617885 1.01136C0.125733 0.525628 0.686027 0.329745 1.08926 0.629745C1.15941 0.681804 1.22206 0.745333 1.28426 0.807539C3.79147 3.3143 6.29823 5.82107 8.80412 8.32916C8.85794 8.38298 8.90118 8.44651 8.96118 8.52019C9.03441 8.45048 9.08471 8.4046 9.13279 8.35651C11.6603 5.82901 14.1887 3.30151 16.7144 0.772245C16.9544 0.531804 17.2196 0.414451 17.5549 0.538422C17.7953 0.62754 17.9144 0.824745 18 1.04975C18 1.14372 18 1.23769 18 1.33166C17.8765 1.50592 17.7754 1.70225 17.6268 1.85136C15.1337 4.35327 12.6353 6.84901 10.1365 9.34475C10.0875 9.39328 10.0204 9.42372 9.92029 9.49034C10.0284 9.57548 10.0879 9.61386 10.1369 9.66239C12.6353 12.1586 15.1341 14.6547 17.6268 17.1567C17.7754 17.3058 17.8769 17.5021 18 17.6764C18 17.7703 18 17.8643 18 17.9583C17.9078 18.242 17.7199 18.4295 17.4362 18.5221C17.3422 18.5221 17.2482 18.5221 17.1543 18.5221C16.98 18.3986 16.7837 18.2971 16.6346 18.1484C14.1326 15.6553 11.6369 13.157 9.14118 10.6581C9.09265 10.6092 9.06221 10.5421 9.02338 10.4834C8.99603 10.4834 8.96824 10.4834 8.94088 10.4839C8.90206 10.5425 8.87162 10.6096 8.82265 10.6581C6.32691 13.157 3.83073 15.6558 1.32926 18.1484C1.18014 18.2971 0.983821 18.3986 0.809557 18.5217C0.716909 18.5212 0.62338 18.5212 0.529409 18.5212Z" fill="white" fill-opacity="0.32"/>
</g>
<defs>
<clipPath id="clip0_446_4240">
<rect width="18" height="18" fill="white" transform="translate(0 0.5)"/>
</clipPath>
</defs>
</svg>
