<svg width="16" height="16" viewBox="0 0 16 16" fill="none" xmlns="http://www.w3.org/2000/svg">
<g clip-path="url(#clip0_704_1205)">
<path d="M8.35162 0.50003C8.59959 0.547315 8.85075 0.582031 9.09503 0.643848C10.84 1.08556 12.1474 2.62212 12.3129 4.41743C12.5153 6.61443 11.0869 8.58556 8.9278 9.06731C8.61151 9.13789 8.28005 9.16291 7.955 9.16763C6.70578 9.18576 5.48563 9.35489 4.3168 9.81541C3.65469 10.0763 3.03365 10.4111 2.49275 10.8791C1.95295 11.3462 1.68272 11.9427 1.67281 12.6554C1.66792 13.0068 1.6705 13.3584 1.67234 13.7099C1.67428 14.0792 1.91908 14.3274 2.28705 14.3275C6.09529 14.3284 9.90351 14.3284 13.7117 14.3275C14.0798 14.3275 14.3291 14.0796 14.3268 13.711C14.324 13.2525 14.3378 12.7917 14.2965 12.3363C14.2446 11.7649 13.9694 11.2897 13.5413 10.9082C13.104 10.5185 12.6038 10.2271 12.0727 9.98472C11.7661 9.8448 11.6319 9.56325 11.72 9.2682C11.8132 8.95616 12.1494 8.75486 12.4474 8.88148C13.3871 9.28083 14.2497 9.79733 14.8631 10.6448C15.2071 11.1201 15.4036 11.6569 15.4735 12.2398C15.4774 12.2724 15.4909 12.3039 15.5 12.3359C15.5 12.8828 15.5 13.4297 15.5 13.9766C15.4897 14.0078 15.4768 14.0384 15.4696 14.0703C15.3223 14.7236 14.9372 15.1707 14.3091 15.4044C14.2013 15.4445 14.0876 15.4685 13.9766 15.5C9.99219 15.5 6.00781 15.5 2.02344 15.5C1.99221 15.4897 1.96159 15.4766 1.92966 15.4697C1.41298 15.3583 1.00408 15.0857 0.74583 14.6239C0.634355 14.4247 0.580186 14.1933 0.5 13.9766C0.5 13.4297 0.5 12.8828 0.5 12.3359C0.508525 12.3086 0.521562 12.2819 0.524961 12.254C0.640068 11.314 1.06578 10.543 1.79018 9.93696C2.59136 9.26668 3.50937 8.81422 4.50049 8.50288C4.77254 8.41742 5.0496 8.3479 5.32484 8.27094C5.31992 8.25494 5.31977 8.24366 5.31409 8.23804C5.29678 8.22096 5.27727 8.20616 5.25875 8.19028C4.09473 7.19331 3.55821 5.93264 3.68996 4.40272C3.83932 2.66826 5.1144 1.14034 6.7925 0.676221C7.07261 0.59876 7.36285 0.557832 7.64841 0.5C7.88287 0.500029 8.11725 0.50003 8.35162 0.50003ZM11.164 4.84124C11.1666 3.10165 9.75368 1.67908 8.01644 1.67208C6.2694 1.66505 4.8415 3.07974 4.83614 4.82296C4.83075 6.56926 6.2472 7.99566 7.99083 7.99991C9.73613 8.00413 11.1614 6.5854 11.164 4.84124Z" fill="white"/>
</g>
<defs>
<clipPath id="clip0_704_1205">
<rect width="15" height="15" fill="white" transform="translate(0.5 0.5)"/>
</clipPath>
</defs>
</svg>
