<svg width="73" height="46" viewBox="0 0 73 46" fill="none" xmlns="http://www.w3.org/2000/svg">
<path d="M72.4731 38.7046V46H0.0438129C0.0874976 41.4567 -0.218298 35.2972 0.87382 30.885C11.4018 -11.0086 71.2499 -4.54326 72.4731 38.7046Z" fill="white"/>
<path d="M72.4729 38.7047V38.9231C63.2991 39.2726 47.9658 40.7141 40.6268 45.9563H31.8462C24.5508 40.6705 9.21747 39.2726 0 38.9231V38.7047C0 38.0494 2.66565e-06 37.3941 0.0436874 36.7825C0.0436874 36.6952 0.0436874 36.5641 0.0436874 36.4767C10.0038 36.6515 27.0408 37.9183 35.4283 44.2526C34.7293 43.2915 33.0256 41.4568 29.1377 39.5783C24.5071 37.3504 15.7702 34.773 0.218424 34.2925C0.218424 34.1178 0.262111 33.9867 0.262111 33.812C16.0323 34.2925 24.8566 36.9573 29.5746 39.1852C33.113 40.8889 34.9041 42.5926 35.7778 43.641V34.642C35.6467 34.3799 34.3362 31.8462 29.094 29.3561C24.7255 27.2593 16.7749 24.8566 2.92688 24.2013C2.97057 24.0266 3.05793 23.8955 3.1453 23.7208C17.0807 24.4198 25.1187 26.8661 29.5746 29.0066C33.7246 31.0161 35.472 32.982 36.1273 33.943C36.7825 32.982 38.5299 30.9725 42.68 29.0066C47.0921 26.8661 55.1301 24.4198 69.1092 23.7208C69.1966 23.8955 69.2403 24.0266 69.3276 24.2013C41.3257 25.5556 36.7388 34.1178 36.5204 34.642V43.641C37.3504 42.5926 39.1415 40.8889 42.7236 39.1852C47.4416 36.9136 56.2659 34.2488 72.0361 33.812C72.0798 33.9867 72.0798 34.1178 72.0798 34.2925C45.7379 35.0788 38.5299 42.0247 36.9136 44.2089C45.301 37.8746 62.3381 36.6078 72.2982 36.433C72.2982 36.5204 72.2982 36.6515 72.2982 36.7388C72.4729 37.4378 72.4729 38.0494 72.4729 38.7047Z" fill="#121212"/>
<path d="M69.8078 18.1292C69.1962 17.9544 68.6283 17.736 68.1041 17.4739C67.4051 17.1681 66.6625 16.8186 65.6577 16.6876C64.4345 16.5128 63.124 16.8186 61.5514 17.5612C61.1145 17.7797 60.634 18.0418 60.1098 18.3913C60.3282 17.9981 60.5466 17.5176 60.7213 17.0807C61.2456 16.7312 62.2503 16.076 62.993 15.377C65.5267 13.018 65.7014 10.9212 65.2209 7.33902V7.29534H65.1772C63.0803 7.81956 61.5077 9.04273 60.5466 10.7901C59.4108 12.9307 59.4982 15.4207 60.0661 16.9497C59.3671 18.6534 58.4061 19.8765 57.1829 20.5755C55.4792 21.5366 53.295 21.4492 50.6739 20.3134C51.8534 18.4349 52.8144 16.2944 53.5134 13.9791C53.9939 13.5423 54.8676 12.6686 55.5229 11.8386C57.576 9.08641 57.3576 6.94586 56.2218 3.53846V3.49478L56.1781 3.53846C54.256 4.45584 52.9018 5.89743 52.2902 7.77587C51.5913 10.0475 52.0718 12.4938 52.8581 13.8917C51.2855 18.9592 47.0917 27.5214 36.6948 28.1329V26.604C36.6948 26.604 36.6948 26.5166 36.6948 26.3419C36.6948 25.9924 36.6948 25.5992 36.6948 25.2061C36.6948 24.6382 36.7385 23.9829 36.7821 23.3713C37.4374 23.5461 38.049 23.6334 38.6606 23.6334C39.709 23.6334 40.6701 23.3713 41.6311 22.8471C42.6359 22.2792 43.5969 21.4055 44.4706 20.2697C45.1259 20.0513 46.3928 19.5707 47.1791 18.9592C49.7565 17.037 50.6302 14.547 49.8875 11.0522V11.0085H49.8438C47.6596 11.3143 45.9559 12.3628 44.8201 14.0665C43.4659 16.076 43.2912 18.566 43.6843 20.1386C42.9417 21.0997 42.1117 21.7987 41.2817 22.2792C39.9274 23.0218 38.4422 23.1529 36.8695 22.6724C37.2627 18.9155 38.5732 13.6296 42.2864 9.78537C42.9417 9.78537 44.2522 9.82906 45.3007 9.61063C48.7081 9.04273 50.0186 7.38271 51.5476 4.10636L51.5912 4.06267H51.5476C49.5381 3.36372 47.6159 3.49477 45.9122 4.41215C43.6843 5.59164 42.4612 7.68851 42.0243 9.1301C41.7622 9.39221 41.5438 9.65432 41.2817 9.91643C41.5438 9.39221 41.8059 8.69326 41.9806 8.08167C42.898 4.76163 41.9806 2.8395 39.709 0.0436807L39.6653 0L39.6216 0.0436807C38.0927 1.61633 37.35 3.53846 37.5248 5.54796C37.6995 7.9943 39.1411 10.0912 40.408 11.0085C37.9179 14.416 36.8695 18.4349 36.4327 21.3181C36.0395 18.697 35.3405 16.3381 34.3358 14.1975C35.559 13.1491 36.8695 11.0522 37.0006 8.69325C37.0879 6.72744 36.3453 4.89269 34.86 3.36372L34.8163 3.32003L34.7726 3.36372C32.6321 5.9848 31.671 7.86325 32.37 10.9212C31.8458 10.2222 31.3215 9.61063 30.71 9.04273C30.2731 7.60114 29.0063 5.50427 26.822 4.32478C25.1183 3.45109 23.1525 3.32004 21.1867 4.01899H21.143L21.1867 4.06267C22.7157 7.33902 24.0699 8.99905 27.4336 9.56695C28.5257 9.74169 29.7926 9.74168 30.4479 9.74168C32.8942 12.2754 34.5979 15.7265 35.4716 19.9639C33.6368 20.5318 31.9331 20.4008 30.4479 19.6144C30.2731 19.5271 30.0984 19.396 29.9236 19.265C30.2731 17.6923 30.0547 15.2023 28.7005 13.2365C27.5647 11.6201 25.861 10.5717 23.7641 10.2659H23.7204V10.3096C23.0214 13.7607 23.8515 16.2944 26.4289 18.2165C27.2589 18.8281 28.5257 19.3086 29.2247 19.5707C29.5305 19.7892 29.8363 20.0076 30.1421 20.1823C31.1031 20.7065 32.1952 20.9687 33.2874 20.9687C34.03 20.9687 34.7726 20.8376 35.6026 20.6192C35.9521 22.4976 36.0395 24.114 36.0832 25.1187C36.0832 25.5119 36.0832 25.8613 36.0832 26.1671C25.992 25.5555 21.7546 18.3476 20.1383 14.1102C20.7498 12.5812 20.8809 10.0912 19.8325 7.95061C18.9588 6.15954 17.4298 4.89268 15.3766 4.2811H15.3329V4.32478C14.6777 7.86324 14.8087 10.0038 17.2114 12.4501C17.954 13.1928 18.9588 13.8917 19.483 14.2849C20.313 16.4254 21.3614 18.3476 22.672 20.0076C20.0509 21.1434 17.7793 21.2308 15.9882 20.2697C14.7214 19.6144 13.7166 18.4786 12.9303 16.8623C13.4982 15.3333 13.5419 12.8433 12.4498 10.7028C11.5324 8.95536 9.91604 7.73219 7.81918 7.20798H7.77549V7.25166C7.25127 10.8338 7.4697 12.9307 10.0034 15.2896C10.7461 15.9886 11.7071 16.6439 12.275 16.9497C12.5808 17.6049 12.9303 18.2165 13.3671 18.7407C12.7556 18.3039 11.9692 17.7797 11.2266 17.4302C9.65394 16.6439 8.34339 16.3818 7.12022 16.5565C6.11547 16.6876 5.37284 17.037 4.67389 17.3428C4.14967 17.6049 3.58176 17.8234 2.97017 17.9981L2.88281 18.0418L2.97017 18.1292C5.37283 20.3134 7.60076 22.1045 11.1392 21.6676C12.7556 21.4492 14.1098 20.4008 14.5029 20.0513C14.8961 20.4008 15.3329 20.6629 15.7261 20.8813C16.6435 21.3618 17.6919 21.6239 18.784 21.6239C20.0946 21.6239 21.5799 21.2744 23.1525 20.5755C26.3852 24.4634 30.7537 26.5603 36.1269 26.8661V36.6952V36.7388H36.7821V28.7445C42.5048 28.3951 47.0917 25.7303 50.4118 20.8376C51.9407 21.5366 53.3823 21.8424 54.6492 21.8424C55.7413 21.8424 56.7461 21.5802 57.6197 21.0997C58.0129 20.8813 58.4061 20.6192 58.7555 20.2697C59.3234 20.7065 60.4592 21.4492 61.8135 21.6239C65.3519 22.0608 67.6235 20.2697 69.9825 18.0855L70.0699 17.9981L69.8078 18.1292Z" fill="#121212"/>
</svg>
